<svg xmlns="http://www.w3.org/2000/svg" viewBox="0 0 49.53 21.34"><defs><style>.cls-1{fill:#f7931e;stroke-width:0.5px;}.cls-1,.cls-3,.cls-4{stroke:#000;stroke-miterlimit:10;}.cls-2{fill:#0c0c0c;}.cls-3{fill:none;}.cls-4{fill:#f15a24;stroke-width:0.05px;}.cls-5{font-size:11.21px;font-family:SFCartoonistHand, SF Cartoonist Hand;}.cls-6{letter-spacing:-0.03em;}</style></defs><g id="Capa_2" data-name="Capa 2"><g id="Logo"><path class="cls-1" d="M31.9,19.14l.44-12.47a.19.19,0,0,0,0-.1C32,6.14,30,2.65,33.09,2.16A.16.16,0,0,0,33.23,2c.1-.58.67-3,2.87-.95a.15.15,0,0,0,.22,0c.41-.43,2.44-1.19,2.15,1.37a.16.16,0,0,0,.1.18c.57.23,3,1.39-.07,4.46a.19.19,0,0,0,0,.13l.81,11.92"/><path class="cls-2" d="M35.68,3.49a.85.85,0,0,0-.53.18c-.38.31-1.07,1-1.07,1.6a1.46,1.46,0,0,0,.47,1,.85.85,0,0,0,.86.19h0a.84.84,0,0,1,.52,0,2.94,2.94,0,0,0,.75.14c.44,0,.88-.45.44-1.79s-1.31-1.34-1.31-1.34Z"/><path class="cls-3" d="M35,8A2,2,0,0,0,36.7,8"/><ellipse cx="33.21" cy="4.16" rx="0.44" ry="0.66" transform="translate(8.34 26.55) rotate(-49.13)"/><ellipse cx="34.52" cy="2.37" rx="0.44" ry="0.67" transform="translate(0 4.67) rotate(-7.74)"/><ellipse cx="37.14" cy="2.37" rx="0.44" ry="0.67"/><ellipse cx="38.45" cy="4.6" rx="0.66" ry="0.44" transform="matrix(0.85, -0.52, 0.52, 0.85, 3.3, 20.86)"/><path class="cls-4" d="M32.4,10.1s4.06,1.22-.13,3.78"/><path class="cls-4" d="M38.75,14.39s-4,1.36.25,3.76"/><text class="cls-5" transform="translate(0 18.89) scale(1.07 1)"><tspan class="cls-6">P</tspan><tspan x="5.34" y="0">etHea</tspan></text><text class="cls-5" transform="translate(40.69 19.08) scale(1.07 1)">th</text></g></g></svg>